<svg xmlns="http://www.w3.org/2000/svg" viewBox="0 0 100 100">
  <g fill="#b31b1b">
    <path d="M8 837 c-2 0 -1 -1 2 -3 2 -2 7 -7 11 -11 3 -3 11 -11 17 -16 5 -4
12 -11 16 -15 3 -3 8 -8 11 -11 4 -2 8 -6 9 -7 1 -1 3 -2 4 -2 1 0 1 0 0 -1
-2 0 129 -1 297 -1 l300 0 0 2 c1 1 1 2 2 2 0 -1 1 0 1 0 0 4 0 5 1 4 1 0 1 0
1 1 0 2 0 4 1 3 1 0 1 0 1 1 0 2 0 4 1 3 1 0 1 0 1 1 -1 2 0 4 1 3 1 0 1 0 1
1 -1 1 2 7 3 6 1 0 1 1 0 2 0 1 0 1 1 1 1 -1 1 -1 1 0 -1 1 0 4 1 3 1 0 1 1 0
2 0 1 0 1 1 1 1 -1 1 -1 0 1 0 1 0 1 1 1 1 -1 1 -1 1 0 -1 2 2 9 3 8 1 0 1 0
1 1 -1 1 0 4 1 4 0 -1 1 0 1 1 0 1 1 3 1 3 1 1 1 2 1 3 0 1 0 1 1 1 1 -1 1 0
1 2 0 1 0 1 1 1 0 0 1 1 1 3 l0 2 -349 0 c-192 0 -349 0 -350 0z M839 831 c0
-2 0 -2 -1 -1 0 1 -2 -1 -4 -5 -2 -4 -3 -7 -3 -7 0 -1 -2 -4 -4 -8 -3 -4 -6
-11 -8 -14 -5 -10 -8 -17 -11 -22 -1 -2 -7 -13 -12 -24 -6 -11 -11 -20 -11
-21 -1 0 -5 -8 -9 -17 l-8 -16 0 -247 0 -248 8 -16 c5 -8 10 -18 12 -21 2 -3
6 -11 9 -17 9 -17 17 -31 18 -32 1 0 1 -1 1 -1 0 -1 1 -3 3 -6 2 -3 6 -10 9
-17 7 -13 10 -18 10 -16 0 1 1 0 1 -1 0 -1 1 164 1 369 0 204 -1 365 -1 359
-1 -12 -1 -12 -1 5 0 10 1 14 1 12 1 -5 1 -4 1 4 0 6 0 10 0 10 -1 0 -1 -1 -1
-2z m0 -46 c-1 -1 -1 0 -1 2 0 1 0 2 1 1 0 0 0 -2 0 -3z m0 -7 c-1 -1 -1 -1
-1 2 0 2 0 3 1 2 0 -1 0 -3 0 -4z m0 -9 c-1 -1 -1 0 -1 1 0 1 0 2 1 1 0 0 0
-2 0 -2z m0 -7 c-1 -1 -1 -1 -1 2 0 2 0 3 1 2 0 -1 0 -3 0 -4z m0 -16 c-1 -1
-1 0 -1 2 0 1 0 2 1 1 0 0 0 -2 0 -3z m0 -18 c-1 -1 -1 0 -1 1 0 1 0 2 1 1 0
0 0 -2 0 -2z m0 -16 c-1 -1 -1 -1 -1 0 0 1 0 2 1 2 0 -1 0 -1 0 -2z m0 -32
c-1 -1 -1 0 -1 1 0 1 0 2 1 1 0 0 0 -2 0 -2z M260 726 c-2 -2 -2 -6 -2 -63 0
-48 0 -61 -1 -62 -1 0 -34 -1 -74 -1 l-72 0 0 -141 0 -141 30 -1 30 0 0 16 c0
13 0 16 2 16 0 1 20 1 43 1 l42 0 0 -114 c0 -67 0 -114 1 -114 0 1 1 0 1 -1 1
-2 58 -2 60 0 2 2 2 6 2 112 -1 60 -1 112 0 114 l0 3 39 0 38 0 0 -15 c0 -11
0 -16 1 -17 1 -1 9 -1 31 -1 l29 0 0 140 c0 126 0 140 -2 141 -1 2 4 2 -74 2
-33 0 -61 1 -62 1 0 1 -1 29 -1 62 0 51 0 61 -1 63 -1 2 -2 2 -30 2 -27 0 -29
0 -30 -2z m-2 -250 l0 -69 -3 0 c-4 -1 -80 0 -82 0 -2 1 -2 5 -2 69 0 45 0 68
1 68 1 -1 1 -1 1 0 0 1 13 1 42 1 l43 0 0 -69z m139 68 c2 0 2 -7 2 -68 0 -64
0 -68 -2 -69 -2 -1 -74 -1 -75 0 -1 1 -1 134 0 136 1 2 4 2 37 2 20 0 38 0 38
-1z M78 69 c0 -1 0 -1 -1 -1 -1 0 -16 -13 -41 -37 -10 -10 -20 -19 -22 -21 -5
-4 -8 -7 -7 -7 0 0 0 0 -1 -1 -1 -1 129 -1 367 -1 203 0 368 0 367 1 0 0 -1 2
-1 3 0 4 0 4 -1 3 -1 0 -1 0 -1 1 1 1 0 2 0 3 -1 0 -2 1 -2 2 0 1 -1 2 -2 2 0
1 -2 4 -3 6 -1 2 -3 5 -3 5 -1 1 -1 2 -1 2 1 1 1 2 0 1 -1 0 -4 5 -4 9 0 1 0
1 -1 1 -1 -1 -1 0 -1 1 0 1 0 2 -1 2 -1 0 -1 0 -1 1 0 2 0 3 -1 3 -1 -1 -1 -1
-1 0 0 1 -1 3 -3 5 -1 2 -2 5 -1 5 0 1 0 1 -1 1 -1 -1 -2 2 -1 3 0 1 0 1 -1 1
-1 -1 -1 0 -2 1 0 1 -1 2 -2 3 -1 2 -2 3 -2 3 0 1 -141 1 -313 1 -209 0 -313
0 -312 -1z m-53 -67 c0 0 -2 0 -3 0 -1 1 0 1 2 1 1 0 2 0 1 -1z"/>
  </g>
  <g fill="#333333">
    <path d="M742 814 c-7 -13 -12 -24 -12 -24 0 -1 -1 -2 -1 -2 -1 0 -19 -38 -19
-39 -1 0 -8 -15 -16 -32 -9 -18 -22 -44 -29 -59 -16 -33 -38 -78 -46 -93 -3
-7 -6 -12 -5 -12 0 -1 0 -1 -1 -1 -1 0 -1 0 0 -1 0 -1 0 -1 -1 -1 0 0 -1 -1
-2 -2 -1 -6 -16 -35 -17 -35 -1 1 -17 30 -77 147 -8 16 -15 29 -15 29 -1 1 -1
1 -1 1 1 0 -17 35 -18 36 -2 1 -88 1 -88 0 0 0 26 -49 32 -60 3 -5 7 -13 10
-18 2 -5 6 -12 8 -16 2 -4 6 -11 10 -17 3 -7 6 -12 7 -12 0 -1 1 -2 1 -3 1 -3
8 -16 18 -36 4 -6 8 -14 10 -18 3 -5 7 -13 9 -17 3 -5 9 -16 14 -25 9 -19 27
-51 34 -64 l5 -9 -59 -115 c-33 -64 -62 -121 -66 -128 -4 -8 -7 -14 -7 -14 -1
0 -1 -1 0 -1 0 -1 0 -1 -1 -1 -1 0 -1 0 0 -1 0 -1 0 -1 -1 -1 -1 0 -1 0 -1 -1
1 0 1 -1 0 -1 0 0 -2 -3 -3 -6 -2 -4 -5 -10 -8 -15 -2 -5 -4 -9 -4 -9 0 -1 0
-1 -1 -1 -1 0 -1 0 0 -1 0 -1 0 -1 -1 -1 0 0 -1 -1 -1 -2 -1 -1 -2 -4 -3 -7
l-3 -5 42 0 43 0 11 24 c17 34 28 57 32 67 2 4 7 14 11 22 4 8 12 26 18 39 7
13 15 31 19 38 3 7 7 14 7 14 0 0 2 5 4 10 2 4 6 12 8 16 1 4 3 7 4 7 0 0 4
-7 8 -15 8 -14 24 -43 35 -63 5 -9 10 -17 30 -54 5 -9 10 -19 12 -22 2 -4 6
-11 10 -17 3 -7 6 -13 8 -15 1 -2 5 -10 9 -17 4 -7 10 -19 14 -26 14 -25 20
-36 26 -47 6 -11 18 -33 29 -52 3 -7 8 -15 11 -20 l5 -8 25 0 26 0 0 30 c0 32
0 32 -4 39 -2 4 -4 6 -13 23 -9 17 -11 20 -16 28 -9 17 -12 22 -19 35 -2 4 -4
7 -4 8 0 0 -3 5 -6 11 -3 6 -7 13 -9 16 -2 2 -3 5 -3 6 0 1 -7 15 -34 62 -7
13 -15 28 -19 35 -3 6 -11 19 -16 30 -6 11 -14 25 -18 32 -6 11 -11 20 -30 54
-10 18 -15 29 -15 30 0 1 28 56 59 116 4 7 14 27 23 44 8 16 19 37 24 46 9 17
23 45 28 57 2 3 7 12 10 20 24 45 32 61 42 79 4 8 10 20 13 25 l5 10 -42 0
-43 0 -11 -24z M3 420 c0 -395 0 -415 2 -414 1 1 3 3 5 5 1 1 5 5 7 7 3 2 9 8
16 14 6 6 15 15 20 20 6 4 13 11 16 14 l6 6 0 348 0 349 -5 4 c-3 3 -7 6 -10
9 -2 2 -8 8 -13 12 -4 4 -13 13 -20 19 -7 6 -13 12 -14 13 -1 1 -3 4 -6 6 l-4
3 0 -415z"/>
  </g>
</svg>